{"title":"The Mechanic 2011 R5 LiNE AC3 XviD SAFCuk009 {DragonTrG}","uid":6190695,"size":2069109134,"categoryP":"video","categoryS":"movies","magnet":"?xt=urn:btih:ca5374a34aa595d8d30706f463d56894de6fdf4e&amp;dn=The+Mechanic+2011+R5+LiNE+AC3+XviD+SAFCuk009+%7BDragonTrG%7D&amp;tr=udp%3A%2F%2Ftracker.openbittorrent.com%3A80&amp;tr=udp%3A%2F%2Fopen.demonii.com%3A1337&amp;tr=udp%3A%2F%2Ftracker.coppersurfer.tk%3A6969&amp;tr=udp%3A%2F%2Fexodus.desync.com%3A6969","seeders":0,"leechers":0,"uploader":"SAFCukO09","files":3,"time":1298273348,"description":"Format : AVI\nFormat/Info : Audio Video Interleave\nFile size : 1.93 GiB\nDuration : 1h 24mn\nOverall bit rate : 3278 Kbps\nWriting library : VirtualDub build 32839/release\n\nVideo\nID : 0\nFormat : MPEG-4 Visual\nFormat profile : Advanced Simple@L5\nFormat settings, BVOP : Yes\nFormat settings, QPel : No\nFormat settings, GMC : No warppoints\nFormat settings, Matrix : Custom\nCodec ID : XVID\nCodec ID/Hint : XviD\nDuration : 1h 24mn\nBit rate : 2 825 Kbps\nWidth : 720 pixels\nHeight : 304 pixels\nDisplay aspect ratio : 2.35:1\nFrame rate : 25.000 fps\nColor space : YUV\nChroma subsampling : 4:2:0\nBit depth : 8 bits\nScan type : Progressive\nBits/(Pixel*Frame) : 0.516\nStream size : 1.66 GiB (86%)\nWriting library : XviD 1.2.1 (UTC 2008-12-04)\n\nAudio\nID : 1\nFormat : AC-3\nFormat/Info : Audio Coding 3\nMode extension : CM (complete main)\nCodec ID : 2000\nDuration : 1h 24mn\nBit rate mode : Constant\nBit rate : 448 Kbps\nChannel(s) : 6 channels\nChannel positions : Front: L C R, Side: L R, LFE\nSampling rate : 48.0 KHz\nBit depth : 16 bits\nStream size : 270 MiB (14%)\nAlignment : Split accross interleaves\nInterleave, duration : 500 ms (12.50 video frames)\nInterleave, preload duration : 500 ms\n\n\n\n &lt;a href=&quot;\nhttp://www.imdb.com/title/tt0472399/&quot; rel=&quot;nofollow&quot; target=&quot;_NEW&quot;&gt;\nhttp://www.imdb.com/title/tt0472399/&lt;/a&gt;\n\n\n\n\n89524873606771859129.png\n\nStoryline\n\nArthur Bishop (Jason Statham) is a 'mechanic' - an elite assassin with a strict code and unique talent for cleanly eliminating targets. It's a job that requires professional perfection and total detachment, and Bishop is the best in the business. But when his mentor and close friend Harry (Donald Sutherland) is murdered, Bishop is anything but detached. His next assignment is self-imposed - he wants those responsible dead. His mission grows complicated when Harry's son Steve (Ben Foster) approaches him with the same vengeful goal and a determination to learn Bishop's trade. Bishop has always acted alone but he can't turn his back on Harry's son. A methodical hit man takes an impulsive student deep into his world and a deadly partnership is born. But while in pursuit of their ultimate mark, deceptions threaten to surface and those hired to fix problems become problems themselves.\n\nUsers: 6.8/10 (4,567 votes) 48 reviews | Critics: 109 reviews Metascore: 49/100 (based on 35 reviews from Metacritic.com)\n\nDirector:\nSimon West\nWriters:\nRichard Wenk (screenplay), Lewis John Carlino (screenplay),\nStars:\nJason Statham, Ben Foster and Donald Sutherland\n\n\nSOURCES:\n\n\n\nVIDEO: Relizlab... Thanks\n\nAUDIO: Imagine / Ink ...Thanks\n\n1000 copies of this out now well mabe bit less ,i was asked to do a copy so what ive done is go for a real high video bitrate ( large file size ) encode.If your not bored heres my take on this movie\n\nCut alot of ending credits to lower the file size a touch\n\nEnjoy !\n\n\n\n\n\nGreetz to Imagine ,Flawl3ss ,Santi ,Vision ,Kingdom,BDK,DiGiTALiNK,LEGION,Classified,iLLUSiON ,THC,WBZ,Rx,iLLUSiON\n\n\n","torrent":{"xt":"urn:btih:ca5374a34aa595d8d30706f463d56894de6fdf4e","amp;dn":"The+Mechanic+2011+R5+LiNE+AC3+XviD+SAFCuk009+%7BDragonTrG%7D","amp;tr":["udp%3A%2F%2Ftracker.openbittorrent.com%3A80","udp%3A%2F%2Fopen.demonii.com%3A1337","udp%3A%2F%2Ftracker.coppersurfer.tk%3A6969","udp%3A%2F%2Fexodus.desync.com%3A6969"],"infoHash":"ca5374a34aa595d8d30706f463d56894de6fdf4e","infoHashBuffer":{"type":"Buffer","data":[202,83,116,163,74,165,149,216,211,7,6,244,99,213,104,148,222,111,223,78]},"announce":[],"urlList":[]}}